<svg xmlns="http://www.w3.org/2000/svg" viewBox="0 0 512 512" fill="#f1ac11"><path d="M176.583 188.948c-32.604 15.896-59.458 40.927-77.646 72.375-2.958 5.104-1.208 11.625 3.885 14.573a10.583 10.583 0 005.333 1.438c3.688 0 7.271-1.906 9.24-5.323 16.063-27.76 39.771-49.854 68.542-63.896 5.292-2.583 7.49-8.969 4.906-14.26-2.562-5.292-8.926-7.511-14.26-4.907z"/><path d="M501.333 341.333H479.46c-5.158-108.708-87.964-197.228-194.176-211.193 1.725-3.928 2.716-8.249 2.716-12.807 0-17.646-14.354-32-32-32s-32 14.354-32 32c0 4.559.991 8.879 2.716 12.807C120.504 144.105 37.698 232.625 32.54 341.333H10.667A10.66 10.66 0 000 352v10.688c0 16.052 4.708 31.604 13.625 44.979a42.572 42.572 0 0035.5 19h413.75a42.6 42.6 0 0035.51-19.01C507.292 394.281 512 378.74 512 362.688V352a10.66 10.66 0 00-10.667-10.667zM256 106.667c5.885 0 10.667 4.781 10.667 10.667 0 5.885-4.781 10.667-10.667 10.667s-10.667-4.781-10.667-10.667 4.782-10.667 10.667-10.667zm0 42.666c108.15 0 196.526 85.22 202.126 192H53.874c5.6-106.78 93.976-192 202.126-192zm234.667 213.355a59.558 59.558 0 01-10.042 33.146 21.3 21.3 0 01-17.75 9.5H49.125a21.3 21.3 0 01-17.76-9.51 59.594 59.594 0 01-10.031-33.135v-.021h469.333v.02z"/></svg>